# xmcd CD database file
#
# Track frame offsets:
#	150
#	20367
#	46045
#
# Disc length: 881 seconds
#
# Revision: 0
# Processed by: cddbd v1.5PL3 Copyright (c) Steve Scherf et al.
# Submitted via: CDex 1.51
#
DISCID=16036f03
DTITLE=FBI - Action AtoZ
DYEAR=1997
DGENRE=JPop
TTITLE0=Action AtoZ
TTITLE1=Action AtoZ 〜chemical trance mix〜
TTITLE2=Action AtoZ 〜back track〜
EXTD=YEAR: 1997
EXTT0=
EXTT1=
EXTT2=
PLAYORDER=
